<svg width="14" height="13" viewBox="0 0 14 13" fill="none" xmlns="http://www.w3.org/2000/svg">
<path d="M0.4375 0.949951C0.4375 0.569092 0.730469 0.246826 1.14062 0.246826H12.8594C13.2402 0.246826 13.5625 0.569092 13.5625 0.949951C13.5625 1.36011 13.2402 1.65308 12.8594 1.65308H1.14062C0.730469 1.65308 0.4375 1.36011 0.4375 0.949951ZM6.0625 4.69995C6.0625 4.31909 6.35547 3.99683 6.76562 3.99683H12.8594C13.2402 3.99683 13.5625 4.31909 13.5625 4.69995C13.5625 5.11011 13.2402 5.40308 12.8594 5.40308H6.76562C6.35547 5.40308 6.0625 5.11011 6.0625 4.69995ZM12.8594 7.74683C13.2402 7.74683 13.5625 8.06909 13.5625 8.44995C13.5625 8.86011 13.2402 9.15308 12.8594 9.15308H6.76562C6.35547 9.15308 6.0625 8.86011 6.0625 8.44995C6.0625 8.06909 6.35547 7.74683 6.76562 7.74683H12.8594ZM0.4375 12.2C0.4375 11.8191 0.730469 11.4968 1.14062 11.4968H12.8594C13.2402 11.4968 13.5625 11.8191 13.5625 12.2C13.5625 12.6101 13.2402 12.9031 12.8594 12.9031H1.14062C0.730469 12.9031 0.4375 12.6101 0.4375 12.2ZM1.19922 9.24097C0.876953 9.47534 0.4375 9.27026 0.4375 8.8894V4.28979C0.4375 3.90894 0.876953 3.67456 1.19922 3.93823L3.98242 6.22339C4.1875 6.39917 4.1875 6.75073 3.98242 6.95581L1.19922 9.24097Z" fill="#333333"/>
</svg>
