<svg width="20" height="15" viewBox="0 0 20 15" fill="none" xmlns="http://www.w3.org/2000/svg">
<path d="M5.69336 3.94214C7.33398 2.30151 10 2.30151 11.6406 3.94214C13.2227 5.49487 13.2812 8.0144 11.8457 9.68433L11.6699 9.86011C11.4062 10.1531 10.9668 10.1824 10.6738 9.948C10.3809 9.68433 10.3516 9.24487 10.6152 8.9519L10.7617 8.77612C11.7578 7.66284 11.6992 5.99292 10.6445 4.93823C9.56055 3.82495 7.77344 3.82495 6.66016 4.93823L3.34961 8.24878C2.26562 9.36206 2.26562 11.1199 3.34961 12.2332C4.4043 13.2585 6.07422 13.3171 7.1875 12.3503L7.36328 12.2039C7.65625 11.9402 8.0957 11.9695 8.35938 12.2625C8.62305 12.5554 8.59375 12.9949 8.30078 13.2585L8.125 13.405C6.45508 14.8699 3.93555 14.782 2.35352 13.2292C0.712891 11.5886 0.712891 8.89331 2.35352 7.25269L5.69336 3.94214ZM14.3066 11.2371C12.6367 12.8777 9.9707 12.8777 8.33008 11.2371C6.74805 9.65503 6.68945 7.16479 8.125 5.49487L8.27148 5.31909C8.53516 5.02612 8.97461 4.99683 9.26758 5.2605C9.56055 5.52417 9.58984 5.96362 9.32617 6.25659L9.20898 6.40308C8.21289 7.51636 8.27148 9.18628 9.32617 10.241C10.4102 11.325 12.1973 11.325 13.3105 10.241L16.6211 6.93042C17.7051 5.81714 17.7051 4.05933 16.6211 2.94604C15.5664 1.92065 13.8965 1.86206 12.7832 2.82886L12.6074 2.97534C12.3145 3.23901 11.875 3.20972 11.6113 2.91675C11.3477 2.62378 11.377 2.18433 11.6699 1.92065L11.8457 1.77417C13.5156 0.309326 16.0352 0.397217 17.6172 1.94995C19.2578 3.59058 19.2578 6.25659 17.6172 7.92651L14.3066 11.2371Z" fill="#333333"/>
</svg>
