<svg width="16" height="13" viewBox="0 0 16 13" fill="none" xmlns="http://www.w3.org/2000/svg">
<path d="M3.07812 0.481201C3.45898 0.481201 3.78125 0.803467 3.78125 1.18433V2.59058C3.78125 3.00073 3.45898 3.2937 3.07812 3.2937H1.67188C1.26172 3.2937 0.96875 3.00073 0.96875 2.59058V1.18433C0.96875 0.803467 1.26172 0.481201 1.67188 0.481201H3.07812ZM14.7969 1.18433C15.1777 1.18433 15.5 1.50659 15.5 1.88745C15.5 2.29761 15.1777 2.59058 14.7969 2.59058H5.89062C5.48047 2.59058 5.1875 2.29761 5.1875 1.88745C5.1875 1.50659 5.48047 1.18433 5.89062 1.18433H14.7969ZM14.7969 5.87183C15.1777 5.87183 15.5 6.19409 15.5 6.57495C15.5 6.98511 15.1777 7.27808 14.7969 7.27808H5.89062C5.48047 7.27808 5.1875 6.98511 5.1875 6.57495C5.1875 6.19409 5.48047 5.87183 5.89062 5.87183H14.7969ZM14.7969 10.5593C15.1777 10.5593 15.5 10.8816 15.5 11.2625C15.5 11.6726 15.1777 11.9656 14.7969 11.9656H5.89062C5.48047 11.9656 5.1875 11.6726 5.1875 11.2625C5.1875 10.8816 5.48047 10.5593 5.89062 10.5593H14.7969ZM0.96875 5.87183C0.96875 5.49097 1.26172 5.1687 1.67188 5.1687H3.07812C3.45898 5.1687 3.78125 5.49097 3.78125 5.87183V7.27808C3.78125 7.68823 3.45898 7.9812 3.07812 7.9812H1.67188C1.26172 7.9812 0.96875 7.68823 0.96875 7.27808V5.87183ZM3.07812 9.8562C3.45898 9.8562 3.78125 10.1785 3.78125 10.5593V11.9656C3.78125 12.3757 3.45898 12.6687 3.07812 12.6687H1.67188C1.26172 12.6687 0.96875 12.3757 0.96875 11.9656V10.5593C0.96875 10.1785 1.26172 9.8562 1.67188 9.8562H3.07812Z" fill="#333333"/>
</svg>
