<svg width="16" height="14" viewBox="0 0 16 14" fill="none" xmlns="http://www.w3.org/2000/svg">
<path d="M1.17383 0.744873C1.17383 0.334717 1.49609 0.041748 1.87695 0.041748H2.81445C3.22461 0.041748 3.51758 0.334717 3.51758 0.744873V4.2312H3.98633C4.39648 4.2312 4.68945 4.55347 4.68945 4.93433C4.68945 5.34448 4.39648 5.63745 3.98633 5.63745H1.64258C1.26172 5.63745 0.939453 5.34448 0.939453 4.93433C0.939453 4.55347 1.26172 4.2312 1.64258 4.2312H2.11133V1.448H1.87695C1.49609 1.448 1.17383 1.12573 1.17383 0.744873ZM3.01953 9.09448C2.84375 8.86011 2.49219 8.8894 2.31641 9.12378L1.99414 9.56323C1.75977 9.8855 1.32031 9.97339 1.02734 9.73901C0.705078 9.50464 0.617188 9.06519 0.851562 8.77222L1.17383 8.30347C1.87695 7.33667 3.2832 7.24878 4.07422 8.15698C4.71875 8.86011 4.68945 9.94409 4.04492 10.6472L3.01953 11.7312H4.01562C4.39648 11.7312 4.71875 12.0535 4.71875 12.4343C4.71875 12.8445 4.39648 13.1375 4.01562 13.1375H1.4375C1.14453 13.1375 0.880859 12.991 0.792969 12.7273C0.675781 12.4636 0.705078 12.1707 0.910156 11.9656L3.01953 9.68042C3.16602 9.50464 3.16602 9.27026 3.01953 9.09448ZM14.7969 1.18433C15.1777 1.18433 15.5 1.50659 15.5 1.88745C15.5 2.29761 15.1777 2.59058 14.7969 2.59058H6.82812C6.41797 2.59058 6.125 2.29761 6.125 1.88745C6.125 1.50659 6.41797 1.18433 6.82812 1.18433H14.7969ZM14.7969 5.87183C15.1777 5.87183 15.5 6.19409 15.5 6.57495C15.5 6.98511 15.1777 7.27808 14.7969 7.27808H6.82812C6.41797 7.27808 6.125 6.98511 6.125 6.57495C6.125 6.19409 6.41797 5.87183 6.82812 5.87183H14.7969ZM14.7969 10.5593C15.1777 10.5593 15.5 10.8816 15.5 11.2625C15.5 11.6726 15.1777 11.9656 14.7969 11.9656H6.82812C6.41797 11.9656 6.125 11.6726 6.125 11.2625C6.125 10.8816 6.41797 10.5593 6.82812 10.5593H14.7969Z" fill="#333333"/>
</svg>
