<svg width="16" height="17" viewBox="0 0 16 17" fill="none" xmlns="http://www.w3.org/2000/svg">
<path d="M9.17188 2.24683C9.55273 2.24683 9.875 2.56909 9.875 2.94995C9.875 3.36011 9.55273 3.65308 9.17188 3.65308H2.14062C1.73047 3.65308 1.4375 3.36011 1.4375 2.94995C1.4375 2.56909 1.73047 2.24683 2.14062 2.24683H9.17188ZM13.8594 5.99683C14.2402 5.99683 14.5625 6.31909 14.5625 6.69995C14.5625 7.11011 14.2402 7.40308 13.8594 7.40308H2.14062C1.73047 7.40308 1.4375 7.11011 1.4375 6.69995C1.4375 6.31909 1.73047 5.99683 2.14062 5.99683H13.8594ZM1.4375 10.45C1.4375 10.0691 1.73047 9.74683 2.14062 9.74683H9.17188C9.55273 9.74683 9.875 10.0691 9.875 10.45C9.875 10.8601 9.55273 11.1531 9.17188 11.1531H2.14062C1.73047 11.1531 1.4375 10.8601 1.4375 10.45ZM13.8594 13.4968C14.2402 13.4968 14.5625 13.8191 14.5625 14.2C14.5625 14.6101 14.2402 14.9031 13.8594 14.9031H2.14062C1.73047 14.9031 1.4375 14.6101 1.4375 14.2C1.4375 13.8191 1.73047 13.4968 2.14062 13.4968H13.8594Z" fill="#333333"/>
</svg>
