<svg width="16" height="17" viewBox="0 0 16 17" fill="none" xmlns="http://www.w3.org/2000/svg">
<path d="M11.0469 2.24683C11.4277 2.24683 11.75 2.56909 11.75 2.94995C11.75 3.36011 11.4277 3.65308 11.0469 3.65308H4.95312C4.54297 3.65308 4.25 3.36011 4.25 2.94995C4.25 2.56909 4.54297 2.24683 4.95312 2.24683H11.0469ZM13.8594 5.99683C14.2402 5.99683 14.5625 6.31909 14.5625 6.69995C14.5625 7.11011 14.2402 7.40308 13.8594 7.40308H2.14062C1.73047 7.40308 1.4375 7.11011 1.4375 6.69995C1.4375 6.31909 1.73047 5.99683 2.14062 5.99683H13.8594ZM4.25 10.45C4.25 10.0691 4.54297 9.74683 4.95312 9.74683H11.0469C11.4277 9.74683 11.75 10.0691 11.75 10.45C11.75 10.8601 11.4277 11.1531 11.0469 11.1531H4.95312C4.54297 11.1531 4.25 10.8601 4.25 10.45ZM13.8594 13.4968C14.2402 13.4968 14.5625 13.8191 14.5625 14.2C14.5625 14.6101 14.2402 14.9031 13.8594 14.9031H2.14062C1.73047 14.9031 1.4375 14.6101 1.4375 14.2C1.4375 13.8191 1.73047 13.4968 2.14062 13.4968H13.8594Z" fill="#333333"/>
</svg>
