<svg width="16" height="17" viewBox="0 0 16 17" fill="none" xmlns="http://www.w3.org/2000/svg">
<path d="M13.8594 2.24683C14.2402 2.24683 14.5625 2.56909 14.5625 2.94995C14.5625 3.36011 14.2402 3.65308 13.8594 3.65308H6.82812C6.41797 3.65308 6.125 3.36011 6.125 2.94995C6.125 2.56909 6.41797 2.24683 6.82812 2.24683H13.8594ZM13.8594 5.99683C14.2402 5.99683 14.5625 6.31909 14.5625 6.69995C14.5625 7.11011 14.2402 7.40308 13.8594 7.40308H2.14062C1.73047 7.40308 1.4375 7.11011 1.4375 6.69995C1.4375 6.31909 1.73047 5.99683 2.14062 5.99683H13.8594ZM13.8594 11.1531H6.82812C6.41797 11.1531 6.125 10.8601 6.125 10.45C6.125 10.0691 6.41797 9.74683 6.82812 9.74683H13.8594C14.2402 9.74683 14.5625 10.0691 14.5625 10.45C14.5625 10.8601 14.2402 11.1531 13.8594 11.1531ZM13.8594 13.4968C14.2402 13.4968 14.5625 13.8191 14.5625 14.2C14.5625 14.6101 14.2402 14.9031 13.8594 14.9031H2.14062C1.73047 14.9031 1.4375 14.6101 1.4375 14.2C1.4375 13.8191 1.73047 13.4968 2.14062 13.4968H13.8594Z" fill="#333333"/>
</svg>
