<svg width="16" height="17" viewBox="0 0 16 17" fill="none" xmlns="http://www.w3.org/2000/svg">
<path d="M11.7793 8.19409C12.8633 8.83862 13.625 10.0398 13.625 11.4167C13.625 13.4675 11.9258 15.1667 9.875 15.1667H3.3125C2.78516 15.1667 2.375 14.7273 2.375 14.2292C2.375 13.7019 2.78516 13.2917 3.3125 13.2917H3.78125V3.91675H3.3125C2.78516 3.91675 2.375 3.47729 2.375 2.97925C2.375 2.4519 2.78516 2.04175 3.3125 2.04175L8.9375 2.01245C10.9883 2.01245 12.6875 3.71167 12.6875 5.76245C12.6875 6.69995 12.3359 7.54956 11.7793 8.19409ZM5.65625 3.91675V7.66675H8.9375C9.96289 7.66675 10.8125 6.81714 10.8125 5.79175C10.8125 4.73706 9.96289 3.91675 8.9375 3.91675H5.65625ZM9.875 13.2625C10.9004 13.2625 11.75 12.3835 11.75 11.3875C11.75 10.3621 10.9004 9.51245 9.875 9.51245H5.65625V13.2625H9.875Z" fill="#333333"/>
</svg>
