<svg width="16" height="17" viewBox="0 0 16 17" fill="none" xmlns="http://www.w3.org/2000/svg">
<path d="M13.625 2.71558C13.625 3.12573 13.3027 3.4187 12.9219 3.4187H10.9297L6.62305 13.7312H9.17188C9.55273 13.7312 9.875 14.0535 9.875 14.4343C9.875 14.8445 9.55273 15.1375 9.17188 15.1375H3.07812C2.66797 15.1375 2.375 14.8445 2.375 14.4343C2.375 14.0535 2.66797 13.7312 3.07812 13.7312H5.12891L9.43555 3.4187H6.82812C6.41797 3.4187 6.125 3.12573 6.125 2.71558C6.125 2.33472 6.41797 2.01245 6.82812 2.01245H12.9219C13.3027 2.01245 13.625 2.33472 13.625 2.71558Z" fill="#333333"/>
</svg>
