<svg width="16" height="17" viewBox="0 0 16 17" fill="none" xmlns="http://www.w3.org/2000/svg">
<path d="M2.60938 2.4812C2.19922 2.4812 1.90625 2.18823 1.90625 1.77808C1.90625 1.39722 2.19922 1.07495 2.60938 1.07495H5.42188C5.80273 1.07495 6.125 1.39722 6.125 1.77808C6.125 2.18823 5.80273 2.4812 5.42188 2.4812H4.71875V8.1062C4.71875 9.92261 6.18359 11.3875 8 11.3875C9.78711 11.3875 11.2812 9.92261 11.2812 8.1062V2.4812H10.5781C10.168 2.4812 9.875 2.18823 9.875 1.77808C9.875 1.39722 10.168 1.07495 10.5781 1.07495H13.3906C13.7715 1.07495 14.0938 1.39722 14.0938 1.77808C14.0938 2.18823 13.7715 2.4812 13.3906 2.4812H12.6875V8.1062C12.6875 10.7136 10.5781 12.7937 8 12.7937C5.39258 12.7937 3.3125 10.7136 3.3125 8.1062V2.4812H2.60938ZM13.8594 14.6687C14.2402 14.6687 14.5625 14.991 14.5625 15.3718C14.5625 15.782 14.2402 16.075 13.8594 16.075H2.14062C1.73047 16.075 1.4375 15.782 1.4375 15.3718C1.4375 14.991 1.73047 14.6687 2.14062 14.6687H13.8594Z" fill="#333333"/>
</svg>
